<svg width="18" height="15" viewBox="0 0 18 15" fill="none" xmlns="http://www.w3.org/2000/svg">
<path fill-rule="evenodd" clip-rule="evenodd" d="M8.76401 1.75271C8.76401 1.54391 9.0032 1.42824 9.16638 1.55525L15.9075 6.80189C16.0361 6.90199 16.0361 7.09676 15.9074 7.19684L9.1612 12.4461C8.99802 12.5731 8.75886 12.4574 8.75886 12.2486V9.11301C8.75886 8.6988 8.42307 8.36301 8.00886 8.36301C5.55268 8.36301 3.66689 9.27625 2.17672 10.56C2.44279 9.10582 3.00119 7.98291 3.74736 7.13403C4.81274 5.922 6.32786 5.19259 8.13182 4.90566C8.49598 4.84774 8.76401 4.53371 8.76401 4.16497V1.75271ZM10.0877 0.371524C8.93794 -0.523335 7.26401 0.297171 7.26401 1.75271V3.543C5.45413 3.93666 3.82961 4.76845 2.62074 6.14372C1.26916 7.68133 0.503906 9.82243 0.503906 12.5881C0.503906 12.9047 0.702734 13.1873 1.00077 13.2941C1.29881 13.401 1.63185 13.3092 1.83303 13.0647C3.19484 11.4098 4.89158 10.1231 7.25886 9.89802V12.2486C7.25886 13.704 8.93257 14.5246 10.0824 13.6299L16.8286 8.38068C17.7289 7.68011 17.729 6.31886 16.8288 5.61817L10.0877 0.371524Z" fill="#99A2AD"/>
</svg>
