<svg width="18" height="17" viewBox="0 0 18 17" fill="none" xmlns="http://www.w3.org/2000/svg">
<path fill-rule="evenodd" clip-rule="evenodd" d="M5.42598 16.8858C4.86547 16.6537 4.50001 16.1067 4.50001 15.5V13.5C4.12999 13.4996 3.7812 13.4964 3.4813 13.4719C3.10506 13.4411 2.67576 13.3696 2.24724 13.1512C1.64512 12.8444 1.15558 12.3549 0.848785 11.7528C0.630439 11.3242 0.558888 10.895 0.528148 10.5187C0.499921 10.1732 0.499962 9.76288 0.500003 9.32993C0.500148 7.77661 0.500148 6.21742 0.500003 4.67009C0.499962 4.23714 0.499921 3.82678 0.528148 3.4813C0.558888 3.10506 0.630439 2.67576 0.848785 2.24724C1.15558 1.64512 1.64512 1.15558 2.24724 0.848786C2.67576 0.63044 3.10506 0.558889 3.4813 0.528149C3.82678 0.499922 4.23714 0.499962 4.67009 0.500003C7.5567 0.500273 10.4433 0.500004 13.3299 0.500003C13.7629 0.499962 14.1732 0.499922 14.5187 0.528149C14.8949 0.558889 15.3242 0.63044 15.7528 0.848786C16.3549 1.15558 16.8444 1.64512 17.1512 2.24724C17.3696 2.67576 17.4411 3.10506 17.4719 3.4813C17.5001 3.82678 17.5 4.23714 17.5 4.6701V9.32992C17.5 9.76287 17.5001 10.1732 17.4719 10.5187C17.4411 10.895 17.3696 11.3242 17.1512 11.7528C16.8444 12.3549 16.3549 12.8444 15.7528 13.1512C15.3242 13.3696 14.8949 13.4411 14.5187 13.4719C14.1732 13.5001 13.7629 13.5001 13.3299 13.5L10.1627 13.5C10.1334 13.5 10.1128 13.5085 10.092 13.5293L7.06067 16.5607C6.63167 16.9897 5.98649 17.118 5.42598 16.8858ZM6.00001 13.12C6.00001 12.728 6.00001 12.532 5.92371 12.3822C5.8566 12.2505 5.74951 12.1434 5.6178 12.0763C5.46806 12 5.27204 12 4.88001 12H4.72001C3.76792 12 3.29187 12 2.92822 11.8147C2.60835 11.6517 2.34828 11.3917 2.18529 11.0718C2.00001 10.7081 2.00001 10.2321 2.00001 9.28001V4.72001C2.00001 3.76792 2.00001 3.29187 2.18529 2.92822C2.34828 2.60835 2.60835 2.34828 2.92822 2.1853C3.29187 2.00001 3.76792 2.00001 4.72001 2.00001H13.28C14.2321 2.00001 14.7081 2.00001 15.0718 2.1853C15.3917 2.34828 15.6517 2.60835 15.8147 2.92822C16 3.29187 16 3.76792 16 4.72001V9.28001C16 10.2321 16 10.7081 15.8147 11.0718C15.6517 11.3917 15.3917 11.6517 15.0718 11.8147C14.7081 12 14.2321 12 13.28 12H10.1627C9.91816 12 9.79586 12 9.68077 12.0276C9.57874 12.0521 9.48119 12.0925 9.39172 12.1474C9.2908 12.2092 9.20433 12.2957 9.03138 12.4686L6.00001 15.5V13.12Z" fill="#99A2AD"/>
</svg>
