<svg width="18" height="16" viewBox="0 0 18 16" fill="none" xmlns="http://www.w3.org/2000/svg">
<path d="M12.6288 0.5C15.5952 0.5 18 2.90479 18 5.87124C18 8.70802 16.9185 10.1458 12.2976 13.7398L10.3046 15.2899C9.53726 15.8867 8.46274 15.8867 7.69538 15.2899L5.70238 13.7398C1.08148 10.1458 0 8.70802 0 5.87124C0 2.90479 2.40479 0.5 5.37124 0.5C6.6268 0.5 7.77436 0.960461 8.78544 1.84644L9 2.04279L9.21456 1.84644C10.2256 0.960461 11.3732 0.5 12.6288 0.5ZM12.6288 2C11.5046 2 10.4915 2.52975 9.57425 3.6216C9.27453 3.97836 8.72547 3.97836 8.42575 3.6216C7.50847 2.52975 6.4954 2 5.37124 2C3.23321 2 1.5 3.73321 1.5 5.87124C1.5 8.10881 2.33781 9.22262 6.62329 12.5558L8.61629 14.1059C8.84198 14.2814 9.15802 14.2814 9.38371 14.1059L11.3767 12.5558C15.4674 9.37413 16.4167 8.21465 16.4946 6.16971L16.5 5.87124C16.5 3.73321 14.7668 2 12.6288 2Z" fill="#99A2AD"/>
</svg>
